# xmcd
#
# Track frame offsets: 
#        150
#        12077
#        23632
#        34477
#        44220
#        56347
#        68270
#        79722
#        92485
#        102632
#        114072
#        126650
#        138595
#        149092
#        159720
#        171372
#        182230
#        192975
#        204005
#        216095
#
# Disc length: 3042 seconds
#
# Revision: 0
# Processed by: cddbd v1.4PL0 Copyright (c) Steve Scherf et al.
# Submitted via: ExactAudioCopy v0.95a3
#
DISCID=210be014
DTITLE=Moe Bandy and Joe Stampley - Just Good Ol' Boys, Hey Joe! Hey Moe
DTITLE=!
DYEAR=2003
DGENRE=Country
TTITLE0=Just Good Ol' Boys
TTITLE1=Make A Little Love Each Day
TTITLE2=Tell Ole I Ain't Here, He Better Get On Home
TTITLE3=Honky-Tonk Man
TTITLE4=Partners In Rhyme
TTITLE5=Holding The Bag
TTITLE6=Bye Bye Love
TTITLE7=Only The Names Have Been Changed
TTITLE8=When It Comes To Cowgirls (We Just Can't Say No)
TTITLE9=Thank Goodness It's Friday
TTITLE10=Honky Tonk Queen
TTITLE11=The Girl Don't Ever Get Lonely
TTITLE12=I'd Rather Be A-Pickin'
TTITLE13=Drinkin', Dancin'
TTITLE14=Drunk Front
TTITLE15=Hey Joe (Hey Moe)
TTITLE16=Country Boys
TTITLE17=Let's Hear It For The Workin' Man
TTITLE18=Get Off My Case
TTITLE19=Two Beers Away
EXTD=
EXTT0=
EXTT1=
EXTT2=
EXTT3=
EXTT4=
EXTT5=
EXTT6=
EXTT7=
EXTT8=
EXTT9=
EXTT10=
EXTT11=
EXTT12=
EXTT13=
EXTT14=
EXTT15=
EXTT16=
EXTT17=
EXTT18=
EXTT19=
PLAYORDER=
